# xmcd
#
# Track frame offsets:
#	150
#	20635
#	38120
#	50840
#	69765
#	84120
#	105915
#	120890
#	135715
#	149365
#
# Disc length: 2272 seconds
#
# Revision: 2
# Processed by: cddbd v1.5.2PL0 Copyright (c) Steve Scherf et al.
# Submitted via: audiograbber 1.83.01
#
DISCID=7908de0a
DTITLE=Withered Earth - Into the Deepest Wounds
DYEAR=2001
DGENRE=Death Metal
TTITLE0=Remnants of Unfruitful Existence
TTITLE1=Supernatural Terror Unearthed by Storms
TTITLE2=Ian
TTITLE3=False, Emotion, Strain
TTITLE4=From Whence the Flesh We Conquer
TTITLE5=Into the Deepest Wounds
TTITLE6=Colossus Nebula
TTITLE7=Blinded by a Dark Matter Sky
TTITLE8=Rebellion at Norance
TTITLE9=I Am Despair
EXTD=
EXTT0=
EXTT1=
EXTT2=
EXTT3=
EXTT4=
EXTT5=
EXTT6=
EXTT7=
EXTT8=
EXTT9=
PLAYORDER=
